<svg
        id="color_1_"
        enable-background="new 0 0 24 24"
        height="32"
        viewBox="0 0 24 24"
        width="32"
        xmlns="http://www.w3.org/2000/svg">
    <title>Selectionner un fichier</title>
    <path
            d="m16 2.25v7.39c-.48.09-.95.23-1.39.41-2.99 1.16-5.11 4.06-5.11 7.45 0 .87.14 1.72.41 2.5h-7.66c-1.237 0-2.25-1.013-2.25-2.25v-15.5c0-1.237 1.013-2.25 2.25-2.25h11.5c1.242 0 2.25 1.007 2.25 2.25z"
            fill="#eceff1"/>
    <path
            d="m9.5 17.5c0 .87.14 1.72.41 2.5h-7.66c-1.24 0-2.25-1.01-2.25-2.25v-3.31l2.26-2.26c.681-.68 1.8-.68 2.48 0l1.26 1.26 4.76-4.76c.681-.68 1.8-.68 2.48 0l1.37 1.37c-2.99 1.16-5.11 4.06-5.11 7.45z"
            fill="#4caf50"/>
    <path
            d="m8.03 0h-5.78c-1.237 0-2.25 1.013-2.25 2.25v15.5-3.31l2.26-2.26c.34-.34.79-.51 1.24-.51s.9.17 1.24.51l1.26 1.26 2.03-2.031z"
            fill="#cdd0d2"/>
    <path
            d="m8.03 11.41-2.03 2.03-1.26-1.26c-.34-.34-.79-.51-1.24-.51s-.9.17-1.24.51l-2.26 2.26v3.31c0 1.24 1.01 2.25 2.25 2.25h5.78z"
            fill="#429846"/>
    <path d="m4.5 5c-.827 0-1.5.673-1.5 1.5s.673 1.5 1.5 1.5 1.5-.673 1.5-1.5-.673-1.5-1.5-1.5z"
          fill="#ffc107"/>
    <path d="m4.5 5c-.827 0-1.5.673-1.5 1.5s.673 1.5 1.5 1.5z" fill="#dea806"/>
    <path d="m17.5 11c-3.584 0-6.5 2.916-6.5 6.5s2.916 6.5 6.5 6.5 6.5-2.916 6.5-6.5-2.916-6.5-6.5-6.5z"
          fill="#4caf50"/>
    <path
            d="m17.5 21c-.414 0-.75-.336-.75-.75v-5.5c0-.414.336-.75.75-.75s.75.336.75.75v5.5c0 .414-.336.75-.75.75z"
            fill="#fff"/>
    <path
            d="m20.25 18.25h-5.5c-.414 0-.75-.336-.75-.75s.336-.75.75-.75h5.5c.414 0 .75.336.75.75s-.336.75-.75.75z"
            fill="#fff"/>
    <path
            d="m17.5 11c-3.584 0-6.5 2.916-6.5 6.5s2.916 6.5 6.5 6.5v-3c-.414 0-.75-.336-.75-.75v-2h-2c-.414 0-.75-.336-.75-.75s.336-.75.75-.75h2v-2c0-.414.336-.75.75-.75z"
            fill="#429846"/>
    <g fill="#dedede">
        <path d="m17.5 18.25h-.75v2c0 .414.336.75.75.75zm0-4.25c-.414 0-.75.336-.75.75v2h.75z"/>
        <path d="m17.5 16.75h-.75-2c-.414 0-.75.336-.75.75s.336.75.75.75h2 .75z"/>
    </g>
</svg>