<svg id="Capa_1" enable-background="new 0 0 512 512" height="32" viewBox="0 0 512 512" width="32"
     xmlns="http://www.w3.org/2000/svg">
    <g>
        <g>
            <g>
                <path d="m159.34 31.87-37.7 31.865 37.7 31.865 46.9 28.8 49.76-28.8 34.84-31.865-34.84-31.865z"
                      fill="#ffb823"/>
                <path d="m480.13 31.87h-224.13v63.73l112.065 56.16 112.065-56.16z" fill="#ff9100"/>
            </g>
            <g>
                <path d="m159.34 95.6v-63.73c0-17.6-14.27-31.87-31.87-31.87h-127.47v416.4h256l68.89-178.96-68.89-141.84z"
                      fill="#ffde46"/>
                <path d="m256 95.6h256v320.8h-256z" fill="#ffb823"/>
            </g>
        </g>
        <path d="m256 267.69h-159.34v244.31h159.34l68.92-170.27z" fill="#6491fb"/>
        <path d="m256 267.69h159.34v244.31h-159.34z" fill="#565cd8"/>
        <path d="m212.46 340.58c0 23.7-19.21 42.9-42.9 42.9s-42.9-19.2-42.9-42.9c0-23.69 19.21-42.89 42.9-42.89s42.9 19.2 42.9 42.89z"
              fill="#ffde46"/>
        <g>
            <path d="m96.66 512h159.34l60-40.52-60-82.87z" fill="#b7e647"/>
            <path d="m256 388.61v123.39h159.34z" fill="#72c34b"/>
        </g>
    </g>
</svg>