<svg height="56" viewBox="0 0 512 512" width="56" xmlns="http://www.w3.org/2000/svg"><g id="Flat"><path d="m112 72h288v400h-288z" fill="#ccdce5"/><path d="m144 40a120 120 0 0 0 -84.853 204.853l84.853-84.853z" fill="#ffc119"/><path d="m228.853 75.147a119.627 119.627 0 0 0 -84.853-35.147v240a120 120 0 0 0 84.853-204.853z" fill="#88bf40"/><path d="m59.147 244.853a119.627 119.627 0 0 0 84.853 35.147v-120z" fill="#ef5249"/><path d="m208 104h128v16h-128z" fill="#0093ba"/><path d="m352 104h16v16h-16z" fill="#0093ba"/><path d="m352 144h16v96h-16z" fill="#88bf40"/><path d="m320 144h16v64h-16z" fill="#ffc119"/><path d="m288 144h16v24h-16z" fill="#ef5249"/><path d="m156.65 446.51-9.3-13.02 56-40a8.016 8.016 0 0 1 3.518-1.41l52.864-7.552 62.021-77.528 12.494 10-64 80a8 8 0 0 1 -5.115 2.923l-54.07 7.724z" fill="#88bf40"/><path d="m158.86 404.116-13.72-8.232 24-40a8.007 8.007 0 0 1 4.126-3.4l88-32a8 8 0 0 1 5.468 0l88 32-5.468 15.038-85.266-31.009-82.6 30.036z" fill="#ffc119"/><path d="m358.685 415.892-48-8a8.007 8.007 0 0 1 -3.563-1.551l-101.328-77.941-52.662 7.524-2.264-15.84 56-8a8 8 0 0 1 6.01 1.579l102.412 78.775 46.025 7.67z" fill="#ef5249"/><g fill="#0093ba"><path d="m256 264h16v16h-16z"/><path d="m288 264h80v16h-80z"/></g></g></svg>
